<svg xmlns="http://www.w3.org/2000/svg" viewBox="0 0 187.04 187.04"><defs><style>.cls-1{fill:#fff;}.cls-2{fill:#151515;}</style></defs><g id="Layer_2" data-name="Layer 2"><g id="figures"><circle class="cls-1" cx="93.52" cy="93.52" r="91.52"/><path class="cls-2" d="M93.52,4A89.52,89.52,0,1,1,4,93.52,89.62,89.62,0,0,1,93.52,4m0-4A93.52,93.52,0,1,0,187,93.52,93.52,93.52,0,0,0,93.52,0Z"/><path class="cls-2" d="M93.52,139.18a45.66,45.66,0,1,1,45.66-45.66A45.72,45.72,0,0,1,93.52,139.18Z"/><path class="cls-2" d="M93.52,48.36A45.16,45.16,0,1,1,48.36,93.52,45.21,45.21,0,0,1,93.52,48.36m0-1a46.16,46.16,0,1,0,46.16,46.16A46.15,46.15,0,0,0,93.52,47.36Z"/></g></g></svg>