<svg xmlns="http://www.w3.org/2000/svg" viewBox="0 0 374.05 187.04"><defs><style>.cls-1,.cls-3{fill:none;}.cls-2{fill:#151515;}.cls-3{stroke:#151515;stroke-linecap:round;stroke-miterlimit:10;stroke-width:4px;}</style></defs><g id="Layer_2" data-name="Layer 2"><g id="figures"><path class="cls-1" d="M280.54,0h-187a93.52,93.52,0,0,0,0,187h187a93.52,93.52,0,0,0,0-187Z"/><path class="cls-2" d="M93.52,4A89.52,89.52,0,1,1,4,93.52,89.62,89.62,0,0,1,93.52,4m0-4A93.52,93.52,0,1,0,187,93.52,93.52,93.52,0,0,0,93.52,0Z"/><line class="cls-3" x1="93.52" y1="93.52" x2="280.54" y2="93.52"/><path class="cls-2" d="M93.52,51.36A42.16,42.16,0,1,1,51.36,93.52,42.2,42.2,0,0,1,93.52,51.36m0-4a46.16,46.16,0,1,0,46.16,46.16A46.15,46.15,0,0,0,93.52,47.36Z"/></g></g></svg>